<?xml version="1.0" encoding="UTF-8" standalone="no"?>
<!-- Created with Inkscape (http://www.inkscape.org/) -->

<svg
   width="100mm"
   height="100mm"
   viewBox="0 0 100 100"
   version="1.1"
   id="svg1"
   sodipodi:docname="icon_attack_feint.svg"
   inkscape:version="1.4 (86a8ad7, 2024-10-11)"
   inkscape:export-filename="icon_attack.png"
   inkscape:export-xdpi="96"
   inkscape:export-ydpi="96"
   xmlns:inkscape="http://www.inkscape.org/namespaces/inkscape"
   xmlns:sodipodi="http://sodipodi.sourceforge.net/DTD/sodipodi-0.dtd"
   xmlns="http://www.w3.org/2000/svg"
   xmlns:svg="http://www.w3.org/2000/svg">
  <sodipodi:namedview
     id="namedview1"
     pagecolor="#ffffff"
     bordercolor="#000000"
     borderopacity="0.25"
     inkscape:showpageshadow="2"
     inkscape:pageopacity="0.0"
     inkscape:pagecheckerboard="0"
     inkscape:deskcolor="#d1d1d1"
     inkscape:document-units="mm"
     inkscape:zoom="2.0000001"
     inkscape:cx="213.24999"
     inkscape:cy="194.74999"
     inkscape:window-width="1920"
     inkscape:window-height="1017"
     inkscape:window-x="-8"
     inkscape:window-y="-8"
     inkscape:window-maximized="1"
     inkscape:current-layer="layer1"
     showgrid="true"
     showguides="true">
    <inkscape:grid
       id="grid7"
       units="mm"
       originx="0"
       originy="0"
       spacingx="0.99999999"
       spacingy="0.99999999"
       empcolor="#0099e5"
       empopacity="0.30196078"
       color="#0099e5"
       opacity="0.14901961"
       empspacing="5"
       enabled="true"
       visible="true" />
  </sodipodi:namedview>
  <defs
     id="defs1">
    <rect
       x="-118.08683"
       y="161.22034"
       width="28.991377"
       height="47.376153"
       id="rect8" />
    <rect
       x="-206.47517"
       y="41.012192"
       width="49.497473"
       height="72.831997"
       id="rect7" />
    <inkscape:path-effect
       effect="bspline"
       id="path-effect1"
       is_visible="true"
       lpeversion="1.3"
       weight="33.333333"
       steps="2"
       helper_size="0"
       apply_no_weight="true"
       apply_with_weight="true"
       only_selected="false"
       uniform="false" />
    <inkscape:path-effect
       effect="bspline"
       id="path-effect49"
       is_visible="true"
       lpeversion="1.3"
       weight="33.333333"
       steps="2"
       helper_size="0"
       apply_no_weight="true"
       apply_with_weight="true"
       only_selected="false"
       uniform="false" />
    <inkscape:path-effect
       effect="bspline"
       id="path-effect48"
       is_visible="true"
       lpeversion="1.3"
       weight="33.333333"
       steps="2"
       helper_size="0"
       apply_no_weight="true"
       apply_with_weight="true"
       only_selected="false"
       uniform="false" />
    <inkscape:path-effect
       effect="bspline"
       id="path-effect47"
       is_visible="true"
       lpeversion="1.3"
       weight="33.333333"
       steps="2"
       helper_size="0"
       apply_no_weight="true"
       apply_with_weight="true"
       only_selected="false"
       uniform="false" />
    <inkscape:path-effect
       effect="bspline"
       id="path-effect46"
       is_visible="true"
       lpeversion="1.3"
       weight="33.333333"
       steps="2"
       helper_size="0"
       apply_no_weight="true"
       apply_with_weight="true"
       only_selected="false"
       uniform="false" />
    <inkscape:path-effect
       effect="bspline"
       id="path-effect45"
       is_visible="true"
       lpeversion="1.3"
       weight="33.333333"
       steps="2"
       helper_size="0"
       apply_no_weight="true"
       apply_with_weight="true"
       only_selected="false"
       uniform="false" />
  </defs>
  <g
     inkscape:label="Layer 1"
     inkscape:groupmode="layer"
     id="layer1">
    <rect
       style="fill:#1c6ff8;fill-opacity:1;stroke-width:0.259883;stroke-dasharray:none;paint-order:stroke fill markers"
       id="rect49"
       width="101.96313"
       height="101.77624"
       x="-0.56126487"
       y="-0.9354437" />
    <rect
       style="fill:#acacac;stroke-width:0.330373;fill-opacity:1"
       id="rect38"
       width="5"
       height="100"
       x="0"
       y="8.8817842e-16"
       inkscape:label="rect38" />
    <rect
       style="fill:#acacac;stroke-width:0.330373;fill-opacity:1"
       id="rect38-4"
       width="5"
       height="100"
       x="95"
       y="0"
       inkscape:label="rect38" />
    <rect
       style="fill:#acacac;fill-opacity:1;stroke-width:0.33;stroke-dasharray:none;paint-order:stroke fill markers"
       id="rect38-4-7"
       width="100"
       height="5"
       x="0"
       y="0"
       inkscape:label="rect38" />
    <rect
       style="fill:#acacac;fill-opacity:1;stroke-width:0.330372"
       id="rect38-4-7-2"
       width="100"
       height="5"
       x="0"
       y="95"
       inkscape:label="rect38" />
    <g
       id="g1"
       transform="matrix(0.68416519,0,0,0.84601664,3.7633336,15.635983)">
      <path
         style="fill:#2b0000;fill-opacity:1;stroke-width:0.264583"
         d="m 39.873312,67.69049 c -2.459816,2.156136 -5.496625,5.314416 -7.92609,7.652775 -2.429466,2.338359 -4.251516,3.856734 -6.164726,4.646306 -1.913211,0.789571 -3.917466,0.850306 -5.7092,0.09109 -1.791734,-0.759218 -3.370843,-2.338328 -0.819856,-5.709238 2.550987,-3.37091 9.231837,-8.533385 13.544126,-11.570204 4.312289,-3.036819 6.255807,-3.947842 8.07791,-3.522672 1.822103,0.425171 3.522684,2.186487 3.43156,3.644167 -0.09112,1.457679 -1.973907,2.611643 -4.433724,4.767779 z"
         id="path48"
         inkscape:path-effect="#path-effect48"
         inkscape:original-d="m 40.450306,66.688342 c -3.03681,3.158284 -6.073618,6.316565 -9.110429,9.474848 -1.822122,1.518433 -3.644172,3.036808 -5.466258,4.555215 -2.004334,0.06073 -4.008589,0.12147 -6.012883,0.182208 -1.579173,-1.579174 -3.158282,-3.158284 -4.737423,-4.737423 6.681115,-5.162679 13.361964,-10.325155 20.042944,-15.487732 1.943598,-0.911061 3.887116,-1.822084 5.830676,-2.733127 1.700646,1.761384 3.401227,3.5227 5.101839,5.284049 -1.88286,1.15401 -3.765643,2.307974 -5.648466,3.461962 z"
         transform="matrix(0.89606791,0,0,1.1373598,-1.7720138,-5.9424611)" />
      <path
         style="fill:#1a1a1a;fill-opacity:1;stroke-width:0.264583"
         d="m 33.374539,46.432822 c 6.650613,6.164723 18.797853,17.583129 25.327003,24.750029 6.529151,7.166901 7.440175,10.082178 7.500903,11.661322 0.06073,1.579144 -0.728826,1.822083 -1.791723,2.247243 -1.062898,0.425159 -2.399068,1.032509 -4.82855,-0.394826 C 57.152691,83.269255 53.63006,79.807359 48.497785,74.341028 43.365509,68.874697 36.623925,61.404294 31.734631,55.573576 26.845336,49.742859 23.808589,45.552148 22.897558,42.970849 c -0.911031,-2.581299 0.303669,-3.553058 1.488036,-3.583418 1.184367,-0.03036 2.338333,0.880668 8.988945,7.045391 z"
         id="path47"
         inkscape:path-effect="#path-effect47"
         inkscape:original-d="m 27.877913,41.179141 c 12.14724,11.418403 24.29448,22.836809 36.441718,34.255215 0.911061,2.915396 1.822087,5.830673 2.73313,8.746011 -0.789588,0.242951 -1.579142,0.485888 -2.368712,0.728834 -1.336225,0.607375 -2.672395,1.214723 -4.008591,1.822085 C 57.15269,83.269256 53.630059,79.80736 50.107363,76.345398 43.365509,68.874697 36.623926,61.404293 29.882208,53.933743 26.845336,49.742859 23.808589,45.552148 20.771779,41.361349 c 1.214748,-0.971799 2.429448,-1.943558 3.644172,-2.915338 1.15401,0.911061 2.307976,1.822088 3.461962,2.73313 z"
         transform="matrix(0.57508589,-0.00921231,0.00802184,0.66043023,10.726636,22.216177)" />
      <path
         style="fill:#333333;fill-opacity:1;stroke-width:0.329999;stroke-dasharray:none;paint-order:stroke fill markers"
         d="m 48.749478,58.076041 c 7.78316,-7.805209 22.247049,-22.621874 29.523091,-31.3752 7.276043,-8.753326 7.364236,-11.443202 5.445967,-12.347187 -1.918268,-0.903984 -5.842843,-0.02206 -14.441934,7.430513 -8.59909,7.452571 -21.872088,21.475207 -28.861505,28.883549 -6.989417,7.408341 -7.694958,8.202075 -6.923235,9.899844 0.771724,1.697769 3.020638,4.299454 4.696343,5.203439 1.675705,0.903984 2.778113,0.11025 10.561273,-7.694958 z"
         id="path49"
         inkscape:path-effect="#path-effect49"
         inkscape:original-d="M 42.068749,65.087499 C 56.532639,50.270833 70.996526,35.454166 85.460416,20.6375 c 0.0882,-2.689985 0.176389,-5.379861 0.264583,-8.069792 -3.924731,0.881962 -7.849306,1.763889 -11.773958,2.645833 -13.273529,14.023197 -26.546527,28.045833 -39.819791,42.06875 -0.70557,0.793766 -1.411111,1.5875 -2.116667,2.38125 2.249003,2.601788 4.497917,5.203473 6.746875,7.805208 1.102452,-0.793766 2.20486,-1.5875 3.307291,-2.38125 z" />
    </g>
    <g
       id="g8"
       transform="matrix(1.324376,0,0,1.2118049,-14.60498,2.1567572)">
      <path
         style="fill:#000000;fill-opacity:1;stroke-width:1.69883;-inkscape-stroke:none;paint-order:stroke fill markers"
         id="path1"
         d="m 40.198693,26.652557 c 1.844257,-2.100225 4.003577,-3.89408 6.175004,-5.641746 3.463962,-2.546206 7.276124,-4.662874 11.33992,-6.089715 0.745395,-0.261716 1.508662,-0.469438 2.262994,-0.704157 2.398628,-0.618026 4.839219,-1.095494 7.304411,-1.351379 1.13833,-0.118158 1.590246,-0.125848 2.729404,-0.183184 0.706205,-0.03569 0.655733,-1.034414 -0.05047,-0.998726 v 0 c -1.172281,0.05948 -1.628476,0.06714 -2.80068,0.189349 -2.524766,0.263219 -5.024403,0.752724 -7.480263,1.389249 -0.776275,0.24241 -1.561735,0.457161 -2.328828,0.727228 -4.158827,1.464183 -8.060174,3.63202 -11.603609,6.242414 -2.255309,1.816386 -4.512646,3.67869 -6.395882,5.890667 -0.374763,0.599628 0.473234,1.129626 0.848001,0.53 z" />
      <path
         style="fill:#000000;fill-opacity:1;stroke-width:1.69883;-inkscape-stroke:none;paint-order:stroke fill markers"
         id="path2"
         d="M 73.134814,11.228313 C 72.39093,10.409346 71.545597,9.6621687 70.604217,9.0751797 69.989873,8.6921107 69.44435,8.4556927 68.793293,8.1467607 c -1.067369,-0.450657 -0.549651,-0.245033 -1.551194,-0.62177 -0.661961,-0.2486131 -1.013553,0.68754 -0.351592,0.936154 v 0 c 0.951275,0.356685 0.459023,0.161799 1.474856,0.589428 0.551617,0.260567 1.143077,0.520474 1.663796,0.842718 0.879485,0.5442663 1.669595,1.2398463 2.362361,2.0039873 0.47303,0.525588 1.216324,-0.143376 0.743294,-0.668965 z" />
      <path
         style="fill:#000000;fill-opacity:1;stroke-width:1.69883;-inkscape-stroke:none;paint-order:stroke fill markers"
         id="path3"
         d="m 71.836234,11.825854 c -0.878425,1.608603 -1.994517,3.074961 -3.092543,4.53776 -0.424442,0.565552 0.37537,1.165804 0.799812,0.600252 v 0 c 1.140994,-1.520612 2.302147,-3.04522 3.203098,-4.724209 0.292603,-0.643727 -0.617762,-1.05753 -0.910367,-0.413803 z" />
    </g>
    <text
       xml:space="preserve"
       transform="matrix(2.229494,0,0,2.4296717,480.19423,-79.756789)"
       id="text7"
       style="line-height:normal;font-family:sans-serif;text-align:start;text-decoration-color:#000000;writing-mode:lr-tb;direction:ltr;white-space:pre;shape-inside:url(#rect7);fill:#000000;fill-opacity:1;stroke-width:6.42076;-inkscape-stroke:none;paint-order:stroke fill markers"><tspan
         x="-206.47461"
         y="51.959683"
         id="tspan1">?</tspan></text>
    <text
       xml:space="preserve"
       transform="matrix(2.117652,0,0,2.0873052,296.29694,-280.32672)"
       id="text8"
       style="line-height:normal;font-family:sans-serif;text-align:start;text-decoration-color:#000000;writing-mode:lr-tb;direction:ltr;white-space:pre;shape-inside:url(#rect8);fill:#000000;fill-opacity:1;stroke-width:6.42076;-inkscape-stroke:none;paint-order:stroke fill markers"><tspan
         x="-118.08594"
         y="172.16867"
         id="tspan2">!</tspan></text>
    <g
       id="g12">
      <path
         style="fill:#000000;fill-opacity:1;stroke-width:1.69883;-inkscape-stroke:none;paint-order:stroke fill markers"
         id="path9"
         d="m 56.86381,75.031565 c 3.25914,0.849701 6.623375,1.178126 9.970312,1.457412 2.860276,0.167002 5.766964,0.195326 8.566722,-0.505476 1.729557,-0.432922 1.963028,-0.624186 3.574677,-1.351071 2.235472,-1.222272 4.147052,-2.919942 5.799222,-4.846796 0.894492,-1.04321 1.173554,-1.486315 1.948764,-2.578941 0.234006,-0.354648 0.468014,-0.709293 0.702019,-1.06394 0.389306,-0.590288 -0.445489,-1.140849 -0.834795,-0.550561 v 0 c -0.227703,0.345427 -0.455403,0.690856 -0.683106,1.036283 -0.744546,1.051793 -1.012418,1.477962 -1.8708,2.482265 -1.561147,1.826541 -3.364323,3.442568 -5.474293,4.610952 -1.51222,0.689711 -1.724596,0.867804 -3.35417,1.280509 -2.70828,0.685898 -5.523365,0.648901 -8.2912,0.490228 -3.282249,-0.2731 -6.581577,-0.593209 -9.77863,-1.422387 -0.6799,-0.194257 -0.954622,0.767266 -0.274722,0.961523 z" />
      <g
         id="g11"
         transform="translate(1.190625,0.09921875)">
        <path
           style="fill:#000000;fill-opacity:1;stroke-width:1.69883;-inkscape-stroke:none;paint-order:stroke fill markers"
           id="path10"
           d="m 80.721892,65.830674 c 1.697374,-0.697793 3.284548,-1.625391 4.850921,-2.573703 0.998257,-0.655018 0.521256,-0.33901 1.431666,-0.947015 0.588023,-0.392718 0.03263,-1.224309 -0.55539,-0.83159 v 0 c -0.89377,0.596942 -0.429196,0.288967 -1.394214,0.923186 -1.523603,0.9226 -3.066459,1.8272 -4.7176,2.506046 -0.652714,0.271963 -0.268097,1.195041 0.384617,0.923076 z" />
        <path
           style="fill:#000000;fill-opacity:1;stroke-width:1.69883;-inkscape-stroke:none;paint-order:stroke fill markers"
           id="path11"
           d="m 86.607855,62.177228 c 0.397529,1.093401 0.964563,2.135579 1.663092,3.067172 0.231714,0.309025 0.490021,0.597188 0.735031,0.895781 0.449551,0.545806 1.221438,-0.08996 0.771887,-0.635759 v 0 c -0.22651,-0.273881 -0.465362,-0.538004 -0.679524,-0.821645 -0.641763,-0.849964 -1.165151,-1.801757 -1.534708,-2.799633 -0.207949,-0.675839 -1.16373,-0.381754 -0.955778,0.294084 z" />
      </g>
    </g>
  </g>
</svg>
