<?xml version="1.0" encoding="UTF-8" standalone="no"?>
<!-- Created with Inkscape (http://www.inkscape.org/) -->

<svg
   width="100mm"
   height="100mm"
   viewBox="0 0 100 100"
   version="1.1"
   id="svg1"
   sodipodi:docname="icon_attack_rush.svg"
   inkscape:version="1.4 (86a8ad7, 2024-10-11)"
   inkscape:export-filename="icon_attack_rush.png"
   inkscape:export-xdpi="96"
   inkscape:export-ydpi="96"
   xmlns:inkscape="http://www.inkscape.org/namespaces/inkscape"
   xmlns:sodipodi="http://sodipodi.sourceforge.net/DTD/sodipodi-0.dtd"
   xmlns="http://www.w3.org/2000/svg"
   xmlns:svg="http://www.w3.org/2000/svg">
  <sodipodi:namedview
     id="namedview1"
     pagecolor="#ffffff"
     bordercolor="#000000"
     borderopacity="0.25"
     inkscape:showpageshadow="2"
     inkscape:pageopacity="0.0"
     inkscape:pagecheckerboard="0"
     inkscape:deskcolor="#d1d1d1"
     inkscape:document-units="mm"
     inkscape:zoom="1.4142136"
     inkscape:cx="51.618794"
     inkscape:cy="188.44395"
     inkscape:window-width="1920"
     inkscape:window-height="1017"
     inkscape:window-x="-8"
     inkscape:window-y="-8"
     inkscape:window-maximized="1"
     inkscape:current-layer="layer1"
     showgrid="true"
     showguides="true">
    <inkscape:grid
       id="grid7"
       units="mm"
       originx="0"
       originy="0"
       spacingx="0.99999999"
       spacingy="0.99999999"
       empcolor="#0099e5"
       empopacity="0.30196078"
       color="#0099e5"
       opacity="0.14901961"
       empspacing="5"
       enabled="true"
       visible="true" />
  </sodipodi:namedview>
  <defs
     id="defs1">
    <inkscape:path-effect
       effect="bspline"
       id="path-effect4"
       is_visible="true"
       lpeversion="1.3"
       weight="33.333333"
       steps="2"
       helper_size="0"
       apply_no_weight="true"
       apply_with_weight="true"
       only_selected="false"
       uniform="false" />
    <inkscape:path-effect
       effect="mirror_symmetry"
       start_point="10.930207,50"
       end_point="78.02281,50"
       center_point="44.476509,50"
       id="path-effect3"
       is_visible="true"
       lpeversion="1.2"
       lpesatellites=""
       mode="free"
       discard_orig_path="false"
       fuse_paths="false"
       oposite_fuse="false"
       split_items="false"
       split_open="false"
       link_styles="false" />
    <inkscape:path-effect
       effect="bspline"
       id="path-effect1"
       is_visible="true"
       lpeversion="1.3"
       weight="33.333333"
       steps="2"
       helper_size="0"
       apply_no_weight="true"
       apply_with_weight="true"
       only_selected="false"
       uniform="false" />
    <inkscape:path-effect
       effect="bspline"
       id="path-effect49"
       is_visible="true"
       lpeversion="1.3"
       weight="33.333333"
       steps="2"
       helper_size="0"
       apply_no_weight="true"
       apply_with_weight="true"
       only_selected="false"
       uniform="false" />
    <inkscape:path-effect
       effect="bspline"
       id="path-effect48"
       is_visible="true"
       lpeversion="1.3"
       weight="33.333333"
       steps="2"
       helper_size="0"
       apply_no_weight="true"
       apply_with_weight="true"
       only_selected="false"
       uniform="false" />
    <inkscape:path-effect
       effect="bspline"
       id="path-effect47"
       is_visible="true"
       lpeversion="1.3"
       weight="33.333333"
       steps="2"
       helper_size="0"
       apply_no_weight="true"
       apply_with_weight="true"
       only_selected="false"
       uniform="false" />
    <inkscape:path-effect
       effect="bspline"
       id="path-effect46"
       is_visible="true"
       lpeversion="1.3"
       weight="33.333333"
       steps="2"
       helper_size="0"
       apply_no_weight="true"
       apply_with_weight="true"
       only_selected="false"
       uniform="false" />
    <inkscape:path-effect
       effect="bspline"
       id="path-effect45"
       is_visible="true"
       lpeversion="1.3"
       weight="33.333333"
       steps="2"
       helper_size="0"
       apply_no_weight="true"
       apply_with_weight="true"
       only_selected="false"
       uniform="false" />
  </defs>
  <g
     inkscape:label="Layer 1"
     inkscape:groupmode="layer"
     id="layer1">
    <rect
       style="fill:#1c6ff8;fill-opacity:1;stroke-width:0.259883;stroke-dasharray:none;paint-order:stroke fill markers"
       id="rect49"
       width="101.96313"
       height="101.77624"
       x="-0.56126487"
       y="-0.9354437" />
    <rect
       style="fill:#acacac;stroke-width:0.330373;fill-opacity:1"
       id="rect38"
       width="5"
       height="100"
       x="0"
       y="8.8817842e-16"
       inkscape:label="rect38" />
    <rect
       style="fill:#acacac;stroke-width:0.330373;fill-opacity:1"
       id="rect38-4"
       width="5"
       height="100"
       x="95"
       y="0"
       inkscape:label="rect38" />
    <rect
       style="fill:#acacac;fill-opacity:1;stroke-width:0.33;stroke-dasharray:none;paint-order:stroke fill markers"
       id="rect38-4-7"
       width="100"
       height="5"
       x="0"
       y="0"
       inkscape:label="rect38" />
    <rect
       style="fill:#acacac;fill-opacity:1;stroke-width:0.330372"
       id="rect38-4-7-2"
       width="100"
       height="5"
       x="0"
       y="95"
       inkscape:label="rect38" />
    <g
       id="g1"
       transform="matrix(0.62331011,0,0,1.0721813,40.32508,-3.2469145)">
      <path
         style="fill:#2b0000;fill-opacity:1;stroke-width:0.264583"
         d="m 39.873312,67.69049 c -2.459816,2.156136 -5.496625,5.314416 -7.92609,7.652775 -2.429466,2.338359 -4.251516,3.856734 -6.164726,4.646306 -1.913211,0.789571 -3.917466,0.850306 -5.7092,0.09109 -1.791734,-0.759218 -3.370843,-2.338328 -0.819856,-5.709238 2.550987,-3.37091 9.231837,-8.533385 13.544126,-11.570204 4.312289,-3.036819 6.255807,-3.947842 8.07791,-3.522672 1.822103,0.425171 3.522684,2.186487 3.43156,3.644167 -0.09112,1.457679 -1.973907,2.611643 -4.433724,4.767779 z"
         id="path48"
         inkscape:path-effect="#path-effect48"
         inkscape:original-d="m 40.450306,66.688342 c -3.03681,3.158284 -6.073618,6.316565 -9.110429,9.474848 -1.822122,1.518433 -3.644172,3.036808 -5.466258,4.555215 -2.004334,0.06073 -4.008589,0.12147 -6.012883,0.182208 -1.579173,-1.579174 -3.158282,-3.158284 -4.737423,-4.737423 6.681115,-5.162679 13.361964,-10.325155 20.042944,-15.487732 1.943598,-0.911061 3.887116,-1.822084 5.830676,-2.733127 1.700646,1.761384 3.401227,3.5227 5.101839,5.284049 -1.88286,1.15401 -3.765643,2.307974 -5.648466,3.461962 z"
         transform="matrix(0.89606791,0,0,1.1373598,-1.7720138,-5.9424611)" />
      <path
         style="fill:#1a1a1a;fill-opacity:1;stroke-width:0.264583"
         d="m 33.374539,46.432822 c 6.650613,6.164723 18.797853,17.583129 25.327003,24.750029 6.529151,7.166901 7.440175,10.082178 7.500903,11.661322 0.06073,1.579144 -0.728826,1.822083 -1.791723,2.247243 -1.062898,0.425159 -2.399068,1.032509 -4.82855,-0.394826 C 57.152691,83.269255 53.63006,79.807359 48.497785,74.341028 43.365509,68.874697 36.623925,61.404294 31.734631,55.573576 26.845336,49.742859 23.808589,45.552148 22.897558,42.970849 c -0.911031,-2.581299 0.303669,-3.553058 1.488036,-3.583418 1.184367,-0.03036 2.338333,0.880668 8.988945,7.045391 z"
         id="path47"
         inkscape:path-effect="#path-effect47"
         inkscape:original-d="m 27.877913,41.179141 c 12.14724,11.418403 24.29448,22.836809 36.441718,34.255215 0.911061,2.915396 1.822087,5.830673 2.73313,8.746011 -0.789588,0.242951 -1.579142,0.485888 -2.368712,0.728834 -1.336225,0.607375 -2.672395,1.214723 -4.008591,1.822085 C 57.15269,83.269256 53.630059,79.80736 50.107363,76.345398 43.365509,68.874697 36.623926,61.404293 29.882208,53.933743 26.845336,49.742859 23.808589,45.552148 20.771779,41.361349 c 1.214748,-0.971799 2.429448,-1.943558 3.644172,-2.915338 1.15401,0.911061 2.307976,1.822088 3.461962,2.73313 z"
         transform="matrix(0.57508589,-0.00921231,0.00802184,0.66043023,10.726636,22.216177)" />
      <path
         style="fill:#333333;fill-opacity:1;stroke-width:0.329999;stroke-dasharray:none;paint-order:stroke fill markers"
         d="m 48.749478,58.076041 c 7.78316,-7.805209 22.247049,-22.621874 29.523091,-31.3752 7.276043,-8.753326 7.364236,-11.443202 5.445967,-12.347187 -1.918268,-0.903984 -5.842843,-0.02206 -14.441934,7.430513 -8.59909,7.452571 -21.872088,21.475207 -28.861505,28.883549 -6.989417,7.408341 -7.694958,8.202075 -6.923235,9.899844 0.771724,1.697769 3.020638,4.299454 4.696343,5.203439 1.675705,0.903984 2.778113,0.11025 10.561273,-7.694958 z"
         id="path49"
         inkscape:path-effect="#path-effect49"
         inkscape:original-d="M 42.068749,65.087499 C 56.532639,50.270833 70.996526,35.454166 85.460416,20.6375 c 0.0882,-2.689985 0.176389,-5.379861 0.264583,-8.069792 -3.924731,0.881962 -7.849306,1.763889 -11.773958,2.645833 -13.273529,14.023197 -26.546527,28.045833 -39.819791,42.06875 -0.70557,0.793766 -1.411111,1.5875 -2.116667,2.38125 2.249003,2.601788 4.497917,5.203473 6.746875,7.805208 1.102452,-0.793766 2.20486,-1.5875 3.307291,-2.38125 z" />
    </g>
    <g
       id="g4"
       transform="matrix(0.89463393,0,0,2.0891594,-1.0240783,-51.535508)">
      <path
         style="fill:#000000;fill-opacity:1;stroke-width:0.329999;stroke-dasharray:none;paint-order:stroke fill markers"
         d="m 18.278297,36.137672 c 8.356423,1.653647 25.201563,2.667883 35.652644,2.315088 10.451081,-0.352795 14.507945,-2.072552 17.660918,-4.431784 3.152974,-2.359231 5.401888,-5.357783 6.151533,-8.554865 0.749645,-3.197082 7e-6,-6.592501 -2.359234,-9.701383 C 73.024917,12.655846 69.056246,9.8336798 64.403936,8.091833 59.751626,6.3499863 54.41597,5.6885412 49.609331,6.3941175 44.802692,7.0996937 40.525345,9.1722224 38.077944,11.685793 c -2.447401,2.513571 -3.06475,5.468026 -1.080329,8.069785 1.984421,2.601758 6.570438,4.850671 11.355036,5.203434 4.784598,0.352763 9.767485,-1.19061 11.884144,-2.68993 2.116659,-1.49932 1.367022,-2.954498 -0.771729,-3.858496 -2.138751,-0.903997 -5.666456,-1.256767 -7.761081,-1.12447 -2.094625,0.132297 -2.756069,0.749647 -1.874102,1.389063 0.881968,0.639416 3.307268,1.300862 3.329292,2.006425 0.02202,0.705563 -2.359178,1.455201 -4.916843,0.727575 -2.557665,-0.727626 -5.291639,-2.932444 -5.379807,-5.137327 -0.08817,-2.204883 2.469419,-4.409699 6.019289,-5.225492 3.549871,-0.815794 8.091796,-0.242541 12.391315,1.322936 4.299518,1.565477 8.356382,4.123065 9.613137,7.386299 1.256755,3.263234 -0.286617,7.231904 -2.579703,9.855702 -2.293086,2.623798 -5.335732,3.902591 -10.142396,4.475854 -4.806663,0.573263 -11.377016,0.440974 -17.705028,-6e-6 -6.328011,-0.44098 -12.413306,-1.190617 -17.41838,-1.940278 -5.005074,-0.74966 -8.929648,-1.499298 -10.958122,-0.727573 -2.028473,0.771724 -2.1607623,3.064732 6.19566,4.718378 z m 0,27.724656 c 8.356423,-1.653647 25.201563,-2.667883 35.652644,-2.315088 10.451081,0.352795 14.507945,2.072552 17.660918,4.431784 3.152974,2.359231 5.401888,5.357783 6.151533,8.554865 0.749645,3.197082 7e-6,6.592501 -2.359234,9.701383 -2.359241,3.108882 -6.327912,5.931048 -10.980222,7.672895 -4.65231,1.741847 -9.987966,2.403292 -14.794605,1.697716 -4.806639,-0.705577 -9.083986,-2.778105 -11.531387,-5.291676 -2.447401,-2.513571 -3.06475,-5.468026 -1.080329,-8.069785 1.984421,-2.601758 6.570438,-4.850671 11.355036,-5.203434 4.784598,-0.352763 9.767485,1.19061 11.884144,2.68993 2.116659,1.49932 1.367022,2.954498 -0.771729,3.858496 -2.138751,0.903997 -5.666456,1.256767 -7.761081,1.12447 -2.094625,-0.132297 -2.756069,-0.749647 -1.874102,-1.389063 0.881968,-0.639416 3.307268,-1.300862 3.329292,-2.006425 0.02202,-0.705563 -2.359178,-1.455201 -4.916843,-0.727575 -2.557665,0.727626 -5.291639,2.932444 -5.379807,5.137327 -0.08817,2.204883 2.469419,4.409699 6.019289,5.225492 3.549871,0.815794 8.091796,0.242541 12.391315,-1.322936 4.299518,-1.565477 8.356382,-4.123065 9.613137,-7.386299 1.256755,-3.263234 -0.286617,-7.231904 -2.579703,-9.855702 -2.293086,-2.623798 -5.335732,-3.902591 -10.142396,-4.475854 -4.806663,-0.573263 -11.377016,-0.440974 -17.705028,6e-6 -6.328011,0.44098 -12.413306,1.190617 -17.41838,1.940278 -5.005074,0.74966 -8.929648,1.499298 -10.958122,0.727573 -2.028473,-0.771724 -2.1607623,-3.064732 6.19566,-4.718378 z"
         id="path1"
         inkscape:path-effect="#path-effect1;#path-effect3"
         inkscape:original-d="m 9.7895829,36.777083 c 16.8451371,1.014235 33.6902771,2.02847 50.5354141,3.042708 4.057025,-1.719826 8.113889,-3.439583 12.170833,-5.159375 2.249003,-2.998671 4.497916,-5.997223 6.746875,-8.995834 C 78.493037,22.269029 77.743401,18.87361 76.993746,15.478124 73.024917,12.655846 69.056246,9.8336803 65.087497,7.011458 59.751626,6.3499864 54.41597,5.6885413 49.080208,5.027083 c -4.277516,2.0726109 -8.554863,4.1451389 -12.832292,6.217708 -0.617373,2.954573 -1.234723,5.909028 -1.852083,8.863542 4.586203,2.249003 9.17222,4.497916 13.758333,6.746875 4.983083,-1.543434 9.96597,-3.086806 14.948956,-4.630209 -0.749668,-1.455237 -1.499304,-2.910416 -2.248959,-4.365625 -3.527848,-0.352785 -7.055553,-0.705555 -10.583333,-1.058333 -0.661469,0.617373 -1.322914,1.234722 -1.984372,1.852083 2.425393,0.661472 4.850693,1.322917 7.276039,1.984375 -2.381298,0.749668 -4.7625,1.499306 -7.143748,2.248959 -2.734082,-2.204906 -5.468056,-4.409723 -8.202083,-6.614584 2.55769,-2.204905 5.115277,-4.409722 7.672917,-6.6145827 4.542102,0.5732757 9.084027,1.1465277 13.626039,1.7197917 4.057025,2.55769 8.113889,5.115278 12.170833,7.672916 -1.543434,3.96883 -3.086804,7.937501 -4.630209,11.906251 -3.042769,1.278845 -6.085416,2.557637 -9.128124,3.836458 -6.570618,-0.132294 -13.140971,-0.264583 -19.711456,-0.396875 -6.085538,-0.749668 -12.170833,-1.499307 -18.25625,-2.248958 -3.924731,-0.749668 -7.849305,-1.499307 -11.773958,-2.248959 -0.132294,2.293102 -0.2645834,4.58611 -0.3968751,6.879167 z"
         transform="matrix(0.69240276,0,0,0.41624352,-0.07748154,27.911831)" />
      <path
         style="fill:#000000;fill-opacity:1;stroke-width:0.329999;stroke-dasharray:none;paint-order:stroke fill markers"
         d="m 10.399011,47.816744 c 0.01559,0.576857 0.04677,1.73057 6.033726,2.323018 5.986956,0.592449 17.929209,0.623632 24.227868,0.155901 6.298658,-0.467732 6.953454,-1.434336 6.922266,-2.011195 -0.03119,-0.57686 -0.748347,-0.763944 -3.804183,-0.997808 -3.055836,-0.233864 -8.450116,-0.514491 -13.70424,-0.592443 -5.254125,-0.07795 -10.36778,0.04677 -13.626255,0.171498 -3.258474,0.124727 -4.661611,0.249451 -5.363193,0.311814 -0.701583,0.06236 -0.701579,0.06236 -0.685989,0.639215 z"
         id="path3"
         inkscape:path-effect="#path-effect4"
         inkscape:original-d="m 10.383421,47.239888 c 0.03118,1.153713 0.06236,2.307426 0.09354,3.461139 11.942732,0.03118 23.884985,0.06236 35.827478,0.09355 0.654825,-0.966645 1.309621,-1.93325 1.964431,-2.899876 -0.717188,-0.187092 -1.434346,-0.374176 -2.151518,-0.561266 -5.3945,-0.280638 -10.78878,-0.561266 -16.183171,-0.841899 -5.113858,0.124728 -10.227513,0.249452 -15.341269,0.374177 -1.403193,0.12473 -2.80633,0.249452 -4.209495,0.374179 z"
         transform="matrix(1.1282854,0,0,0.64462003,-2.9238095,17.146859)" />
    </g>
  </g>
</svg>
